<svg xmlns="http://www.w3.org/2000/svg" width="25" height="24" fill="none" viewBox="0 0 25 24" id="google-ads">
  <rect width="24" height="24" x=".463" fill="url(#paint0_linear_302_5036)" rx="8"></rect>
  <path fill="#fff" fill-rule="evenodd" d="M10.7281 5.34103C9.51042 6.04351 9.0928 7.60007 9.79529 8.8177L15.2495 18.2717C15.952 19.4894 17.5086 19.907 18.7262 19.2045C19.9438 18.502 20.3615 16.9455 19.659 15.7279L14.2047 6.27379C13.5023 5.05615 11.9457 4.63855 10.7281 5.34103ZM8.76663 8.05612C8.82741 8.44169 8.95869 8.82282 9.1654 9.18112L11.58 13.3665L9.77834 16.4894C9.53327 14.9245 8.17912 13.7272 6.54534 13.7272C6.13079 13.7272 5.73424 13.8043 5.36924 13.9449L8.76663 8.05612ZM6.54532 19.545C7.95107 19.545 9.09064 18.4055 9.09064 16.9997C9.09064 15.594 7.95107 14.4544 6.54532 14.4544C5.13958 14.4544 4 15.594 4 16.9997C4 18.4055 5.13958 19.545 6.54532 19.545Z" clip-rule="evenodd"></path>
  <defs>
    <linearGradient id="paint0_linear_302_5036" x1=".463" x2="24.463" y1="12" y2="12" gradientUnits="userSpaceOnUse">
      <stop stop-color="#ED6D6B"></stop>
      <stop offset="1" stop-color="#F0B076"></stop>
    </linearGradient>
  </defs>
</svg>
